<mxfile host="app.diagrams.net" agent="Mozilla/5.0 (Macintosh; Intel Mac OS X 10_15_7) AppleWebKit/537.36 (KHTML, like Gecko) Chrome/131.0.0.0 Safari/537.36" version="24.8.6">
  <diagram name="Page-1" id="9P9hnHcy0ReyX_XiDUxJ">
    <mxGraphModel dx="953" dy="683" grid="1" gridSize="10" guides="1" tooltips="1" connect="1" arrows="1" fold="1" page="1" pageScale="1" pageWidth="827" pageHeight="1169" math="0" shadow="0">
      <root>
        <mxCell id="0" />
        <mxCell id="1" parent="0" />
        <mxCell id="4tlHm_14xmWNgipJoCPa-1" value="Web Front End" style="rounded=1;whiteSpace=wrap;html=1;" vertex="1" parent="1">
          <mxGeometry x="270" y="201" width="150" height="100" as="geometry" />
        </mxCell>
        <mxCell id="4tlHm_14xmWNgipJoCPa-4" value="Web Server" style="rounded=1;whiteSpace=wrap;html=1;" vertex="1" parent="1">
          <mxGeometry x="270" y="400" width="150" height="100" as="geometry" />
        </mxCell>
        <mxCell id="4tlHm_14xmWNgipJoCPa-5" value="UPLOADS" style="sketch=0;outlineConnect=0;fontColor=#232F3E;gradientColor=none;fillColor=#232F3D;strokeColor=none;dashed=0;verticalLabelPosition=bottom;verticalAlign=top;align=center;html=1;fontSize=12;fontStyle=0;aspect=fixed;pointerEvents=1;shape=mxgraph.aws4.documents3;" vertex="1" parent="1">
          <mxGeometry x="246.5" y="570" width="57" height="78" as="geometry" />
        </mxCell>
        <mxCell id="4tlHm_14xmWNgipJoCPa-6" value="OUTPUTS" style="sketch=0;outlineConnect=0;fontColor=#232F3E;gradientColor=none;fillColor=#232F3D;strokeColor=none;dashed=0;verticalLabelPosition=bottom;verticalAlign=top;align=center;html=1;fontSize=12;fontStyle=0;aspect=fixed;pointerEvents=1;shape=mxgraph.aws4.documents3;" vertex="1" parent="1">
          <mxGeometry x="510" y="570" width="57" height="78" as="geometry" />
        </mxCell>
        <mxCell id="4tlHm_14xmWNgipJoCPa-11" value="LLM" style="sketch=0;outlineConnect=0;fontColor=#232F3E;gradientColor=none;fillColor=#000000;strokeColor=none;dashed=0;verticalLabelPosition=bottom;verticalAlign=top;align=center;html=1;fontSize=12;fontStyle=0;aspect=fixed;pointerEvents=1;shape=mxgraph.aws4.sagemaker_model;" vertex="1" parent="1">
          <mxGeometry x="560" y="388" width="78" height="78" as="geometry" />
        </mxCell>
        <mxCell id="4tlHm_14xmWNgipJoCPa-12" value="User" style="shape=umlActor;verticalLabelPosition=bottom;verticalAlign=top;html=1;outlineConnect=0;" vertex="1" parent="1">
          <mxGeometry x="120" y="201" width="30" height="60" as="geometry" />
        </mxCell>
        <mxCell id="4tlHm_14xmWNgipJoCPa-13" value="" style="endArrow=classic;html=1;rounded=0;" edge="1" parent="1">
          <mxGeometry width="50" height="50" relative="1" as="geometry">
            <mxPoint x="170" y="230" as="sourcePoint" />
            <mxPoint x="260" y="230" as="targetPoint" />
          </mxGeometry>
        </mxCell>
        <mxCell id="4tlHm_14xmWNgipJoCPa-14" value="&lt;b&gt;&lt;font style=&quot;font-size: 20px;&quot;&gt;1&lt;/font&gt;&lt;/b&gt;" style="ellipse;whiteSpace=wrap;html=1;aspect=fixed;fontColor=#FFFFFF;fillColor=#000000;" vertex="1" parent="1">
          <mxGeometry x="180" y="190" width="30" height="30" as="geometry" />
        </mxCell>
        <mxCell id="4tlHm_14xmWNgipJoCPa-15" value="" style="endArrow=classic;html=1;rounded=0;entryX=0.25;entryY=0;entryDx=0;entryDy=0;exitX=0.25;exitY=1;exitDx=0;exitDy=0;" edge="1" parent="1" source="4tlHm_14xmWNgipJoCPa-1" target="4tlHm_14xmWNgipJoCPa-4">
          <mxGeometry width="50" height="50" relative="1" as="geometry">
            <mxPoint x="310" y="310" as="sourcePoint" />
            <mxPoint x="270" y="350" as="targetPoint" />
          </mxGeometry>
        </mxCell>
        <mxCell id="4tlHm_14xmWNgipJoCPa-16" value="&lt;b&gt;&lt;font style=&quot;font-size: 20px;&quot;&gt;2&lt;/font&gt;&lt;/b&gt;" style="ellipse;whiteSpace=wrap;html=1;aspect=fixed;fontColor=#FFFFFF;fillColor=#000000;" vertex="1" parent="1">
          <mxGeometry x="270" y="330" width="30" height="30" as="geometry" />
        </mxCell>
        <mxCell id="4tlHm_14xmWNgipJoCPa-17" value="" style="endArrow=classic;html=1;rounded=0;" edge="1" parent="1">
          <mxGeometry width="50" height="50" relative="1" as="geometry">
            <mxPoint x="284.58" y="500" as="sourcePoint" />
            <mxPoint x="284.58" y="570" as="targetPoint" />
          </mxGeometry>
        </mxCell>
        <mxCell id="4tlHm_14xmWNgipJoCPa-18" value="&lt;b&gt;&lt;font style=&quot;font-size: 20px;&quot;&gt;3&lt;/font&gt;&lt;/b&gt;" style="ellipse;whiteSpace=wrap;html=1;aspect=fixed;fontColor=#FFFFFF;fillColor=#000000;" vertex="1" parent="1">
          <mxGeometry x="240" y="510" width="30" height="30" as="geometry" />
        </mxCell>
        <mxCell id="4tlHm_14xmWNgipJoCPa-19" value="" style="endArrow=classic;html=1;rounded=0;" edge="1" parent="1">
          <mxGeometry width="50" height="50" relative="1" as="geometry">
            <mxPoint x="390" y="500" as="sourcePoint" />
            <mxPoint x="390" y="570" as="targetPoint" />
          </mxGeometry>
        </mxCell>
        <mxCell id="4tlHm_14xmWNgipJoCPa-21" value="FFMpeg" style="rounded=1;whiteSpace=wrap;html=1;" vertex="1" parent="1">
          <mxGeometry x="360" y="568" width="80" height="80" as="geometry" />
        </mxCell>
        <mxCell id="4tlHm_14xmWNgipJoCPa-22" value="" style="endArrow=classic;html=1;rounded=0;exitX=0;exitY=0.5;exitDx=0;exitDy=0;" edge="1" parent="1" source="4tlHm_14xmWNgipJoCPa-21" target="4tlHm_14xmWNgipJoCPa-5">
          <mxGeometry width="50" height="50" relative="1" as="geometry">
            <mxPoint x="310" y="540" as="sourcePoint" />
            <mxPoint x="310" y="610" as="targetPoint" />
          </mxGeometry>
        </mxCell>
        <mxCell id="4tlHm_14xmWNgipJoCPa-23" value="&lt;b&gt;&lt;font style=&quot;font-size: 20px;&quot;&gt;4&lt;/font&gt;&lt;/b&gt;" style="ellipse;whiteSpace=wrap;html=1;aspect=fixed;fontColor=#FFFFFF;fillColor=#000000;" vertex="1" parent="1">
          <mxGeometry x="350" y="510" width="30" height="30" as="geometry" />
        </mxCell>
        <mxCell id="4tlHm_14xmWNgipJoCPa-24" value="" style="endArrow=classic;html=1;rounded=0;exitX=1;exitY=0.5;exitDx=0;exitDy=0;" edge="1" parent="1" target="4tlHm_14xmWNgipJoCPa-6">
          <mxGeometry width="50" height="50" relative="1" as="geometry">
            <mxPoint x="443" y="608" as="sourcePoint" />
            <mxPoint x="503" y="608" as="targetPoint" />
          </mxGeometry>
        </mxCell>
        <mxCell id="4tlHm_14xmWNgipJoCPa-25" value="" style="endArrow=classic;html=1;rounded=0;entryX=1.005;entryY=0.849;entryDx=0;entryDy=0;entryPerimeter=0;" edge="1" parent="1" source="4tlHm_14xmWNgipJoCPa-6">
          <mxGeometry width="50" height="50" relative="1" as="geometry">
            <mxPoint x="522" y="560" as="sourcePoint" />
            <mxPoint x="422.75" y="484.9000000000001" as="targetPoint" />
            <Array as="points">
              <mxPoint x="540" y="485" />
            </Array>
          </mxGeometry>
        </mxCell>
        <mxCell id="4tlHm_14xmWNgipJoCPa-26" value="&lt;b&gt;&lt;font style=&quot;font-size: 20px;&quot;&gt;5&lt;/font&gt;&lt;/b&gt;" style="ellipse;whiteSpace=wrap;html=1;aspect=fixed;fontColor=#FFFFFF;fillColor=#000000;" vertex="1" parent="1">
          <mxGeometry x="500" y="520" width="30" height="30" as="geometry" />
        </mxCell>
        <mxCell id="4tlHm_14xmWNgipJoCPa-27" value="" style="endArrow=classic;html=1;rounded=0;exitX=1;exitY=0.25;exitDx=0;exitDy=0;" edge="1" parent="1" source="4tlHm_14xmWNgipJoCPa-4" target="4tlHm_14xmWNgipJoCPa-11">
          <mxGeometry width="50" height="50" relative="1" as="geometry">
            <mxPoint x="490" y="380" as="sourcePoint" />
            <mxPoint x="490" y="450" as="targetPoint" />
          </mxGeometry>
        </mxCell>
        <mxCell id="4tlHm_14xmWNgipJoCPa-28" value="&lt;b&gt;&lt;font style=&quot;font-size: 20px;&quot;&gt;6&lt;/font&gt;&lt;/b&gt;" style="ellipse;whiteSpace=wrap;html=1;aspect=fixed;fontColor=#FFFFFF;fillColor=#000000;" vertex="1" parent="1">
          <mxGeometry x="440" y="388" width="30" height="30" as="geometry" />
        </mxCell>
        <mxCell id="4tlHm_14xmWNgipJoCPa-29" value="" style="endArrow=classic;html=1;rounded=0;entryX=0.622;entryY=1.023;entryDx=0;entryDy=0;exitX=0.622;exitY=-0.042;exitDx=0;exitDy=0;entryPerimeter=0;exitPerimeter=0;" edge="1" parent="1" source="4tlHm_14xmWNgipJoCPa-4" target="4tlHm_14xmWNgipJoCPa-1">
          <mxGeometry width="50" height="50" relative="1" as="geometry">
            <mxPoint x="499.16999999999996" y="270" as="sourcePoint" />
            <mxPoint x="499.16999999999996" y="369" as="targetPoint" />
          </mxGeometry>
        </mxCell>
        <mxCell id="4tlHm_14xmWNgipJoCPa-30" value="&lt;b&gt;&lt;font style=&quot;font-size: 20px;&quot;&gt;7&lt;/font&gt;&lt;/b&gt;" style="ellipse;whiteSpace=wrap;html=1;aspect=fixed;fontColor=#FFFFFF;fillColor=#000000;" vertex="1" parent="1">
          <mxGeometry x="370" y="330" width="30" height="30" as="geometry" />
        </mxCell>
      </root>
    </mxGraphModel>
  </diagram>
</mxfile>
